<?xml version="1.0" encoding="UTF-8"?>
<svg version="1.1" xmlns="http://www.w3.org/2000/svg" width="200" height="200">
<path d="M0 0 C66 0 132 0 200 0 C200 66 200 132 200 200 C134 200 68 200 0 200 C0 134 0 68 0 0 Z " fill="#FEFEFE" transform="translate(0,0)"/>
<path d="M0 0 C7.61934607 5.40256769 13.25050381 12.45754483 16.375 21.3125 C16.74749074 23.99894835 16.93711665 26.57022312 16.94140625 29.28125 C17.08449219 29.9515625 17.22757812 30.621875 17.375 31.3125 C19.19942334 32.46211683 19.19942334 32.46211683 21.375 33.3125 C25.07050485 36.3839832 28.18165794 39.60952301 30.3125 43.9375 C32.64513936 47.75454623 34.56326507 48.85899126 38.34375 50.99609375 C42.79327857 53.87973053 46.42975199 58.37928094 48.375 63.3125 C49.45887764 71.58748889 48.98351334 78.32040772 44.15625 85.25390625 C39.69885243 90.40532844 34.14628265 93.97102044 27.27293396 94.59338379 C26.11221878 94.60703979 24.9515036 94.6206958 23.75561523 94.63476562 C22.78856911 94.64966034 22.78856911 94.64966034 21.80198669 94.66485596 C19.67914462 94.69394549 17.55660203 94.70768123 15.43359375 94.71875 C14.33761714 94.72723213 14.33761714 94.72723213 13.21949959 94.73588562 C9.34773452 94.76581895 5.47611732 94.78430582 1.60424805 94.79296875 C-2.36450438 94.80389053 -6.3318678 94.85185344 -10.30018711 94.90891266 C-13.37775899 94.9464724 -16.45500769 94.95659286 -19.53278923 94.9596405 C-20.99385046 94.96563277 -22.45491024 94.98148085 -23.91574287 95.00801086 C-34.44904545 95.18554758 -43.36607225 93.68365798 -51.61915588 86.60119629 C-57.14968583 80.95000982 -59.81642547 73.42449281 -60.0625 65.625 C-59.94605292 62.18495923 -59.52214608 59.55276317 -58.0625 56.4375 C-56.45038054 52.93289249 -56.43378312 51.88615063 -57.625 48.3125 C-57.96402344 47.45140625 -58.30304687 46.5903125 -58.65234375 45.703125 C-61.59806213 35.43451635 -60.78779905 22.67294576 -55.625 13.3125 C-51.29481713 6.20273025 -45.75602336 1.5159307 -38.625 -2.6875 C-38.02429688 -3.04972656 -37.42359375 -3.41195312 -36.8046875 -3.78515625 C-25.53941159 -9.21572647 -10.15597831 -6.23284957 0 0 Z " fill="#281D18" transform="translate(119.625,69.6875)"/>
<path d="M0 0 C4.95795199 3.41687268 8.72466898 7.83317386 10.68359375 13.56640625 C11.57019616 16.05002787 11.57019616 16.05002787 13.80078125 17.1015625 C14.57679688 17.3696875 15.3528125 17.6378125 16.15234375 17.9140625 C20.25837868 19.54197683 22.34270925 21.11603269 24.77734375 24.9140625 C25.76734375 26.3990625 25.76734375 26.3990625 26.77734375 27.9140625 C27.78613503 34.4871341 27.1958506 39.8253371 23.27734375 45.2578125 C19.62288591 49.29294303 15.46183987 51.77166986 10.00276184 52.06123352 C8.8788353 52.07107773 7.75490875 52.08092194 6.59692383 52.09106445 C4.6839727 52.11031731 4.6839727 52.11031731 2.7323761 52.12995911 C1.33721303 52.13812871 -0.05795445 52.14557202 -1.453125 52.15234375 C-2.15750513 52.15641928 -2.86188526 52.1604948 -3.58761024 52.16469383 C-7.31857635 52.18554243 -11.04950585 52.19984726 -14.78051758 52.20922852 C-18.61934107 52.22026835 -22.45758098 52.25464273 -26.29619884 52.29440022 C-29.26035072 52.32065054 -32.22436556 52.32892792 -35.18862343 52.33250999 C-36.60271441 52.3373572 -38.01680004 52.34891763 -39.4307766 52.36754799 C-48.49369782 52.47950225 -55.01422166 52.21178849 -62.2109375 46.2734375 C-66.9485933 40.51557853 -69.93496804 34.5312154 -69.5625 26.91796875 C-68.39718614 20.04663528 -64.47609682 15.76690434 -59.3203125 11.359375 C-54.35635704 7.93914498 -50.68889392 7.80608824 -44.72265625 8.1640625 C-39.02240577 8.413936 -39.02240577 8.413936 -34.34765625 5.2265625 C-33.29578125 3.586875 -33.29578125 3.586875 -32.22265625 1.9140625 C-21.56790945 -5.44881554 -11.47639132 -6.23299503 0 0 Z " fill="#FCFCFB" transform="translate(135.22265625,106.0859375)"/>
<path d="M0 0 C5.86548248 4.54965181 9.03649665 10.68298279 11.6796875 17.53125 C11.6796875 18.52125 11.6796875 19.51125 11.6796875 20.53125 C10.59171875 20.46164063 9.50375 20.39203125 8.3828125 20.3203125 C-1.47244797 19.88287568 -9.00203945 20.57670982 -17.3203125 26.53125 C-18.10535156 27.41425781 -18.89039063 28.29726562 -19.69921875 29.20703125 C-23.10971056 32.23123785 -25.01179089 32.06852272 -29.5078125 32.03125 C-36.69918118 32.25619995 -41.2235258 33.92195227 -47.3203125 37.53125 C-48.8053125 38.02625 -48.8053125 38.02625 -50.3203125 38.53125 C-53.30515589 30.55574846 -53.6694257 22.19651329 -50.6328125 14.15625 C-46.16756245 4.57456759 -40.23685359 -1.00621918 -30.5078125 -5.34375 C-19.589137 -8.93285917 -9.42095518 -5.96343291 0 0 Z " fill="#F6B52D" transform="translate(118.3203125,76.46875)"/>
<path d="M0 0 C2.92824652 0.97608217 4.61426621 2.10786631 7 4 C5.125 10.875 5.125 10.875 4 12 C3.38991716 18.71091128 4.66643557 24.11070284 8 30 C9.89072237 32.06134854 11.66941141 33.41096232 14 35 C13.01 36.98 12.02 38.96 11 41 C4.74726127 38.05753471 0.83748335 32.40574013 -1.875 26.1875 C-4.46437962 18.35770923 -3.54917835 11.24623913 0 4 C0 2.68 0 1.36 0 0 Z " fill="#2C2221" transform="translate(63,119)"/>
<path d="M0 0 C0.79792969 0.00386719 1.59585938 0.00773437 2.41796875 0.01171875 C3.21589844 0.00785156 4.01382813 0.00398438 4.8359375 0 C10.79136108 0.01011108 10.79136108 0.01011108 11.91796875 1.13671875 C12.04296875 3.63671875 12.04296875 3.63671875 11.91796875 6.13671875 C10.03244345 8.02224405 7.34028044 7.26918564 4.8359375 7.2734375 C4.03800781 7.26957031 3.24007812 7.26570313 2.41796875 7.26171875 C1.62003906 7.26558594 0.82210937 7.26945312 0 7.2734375 C-5.95542358 7.26332642 -5.95542358 7.26332642 -7.08203125 6.13671875 C-7.20703125 3.63671875 -7.20703125 3.63671875 -7.08203125 1.13671875 C-5.19650595 -0.74880655 -2.50434294 0.00425186 0 0 Z " fill="#413A38" transform="translate(39.08203125,98.86328125)"/>
<path d="M0 0 C1.1127832 -0.01836914 1.1127832 -0.01836914 2.24804688 -0.03710938 C4.18763629 -0.04238478 6.1267371 0.06561098 8.0625 0.1875 C8.7225 0.8475 9.3825 1.5075 10.0625 2.1875 C9.52678571 5.72321429 9.52678571 5.72321429 8.0625 7.1875 C5.40427343 7.31408222 2.78362576 7.37270214 0.125 7.375 C-0.61685547 7.38724609 -1.35871094 7.39949219 -2.12304688 7.41210938 C-4.06263629 7.41738478 -6.0017371 7.30938902 -7.9375 7.1875 C-8.5975 6.5275 -9.2575 5.8675 -9.9375 5.1875 C-8.98747438 -1.08266908 -5.50525705 0.00475822 0 0 Z " fill="#372F2D" transform="translate(154.9375,98.8125)"/>
<path d="M0 0 C0.33 0 0.66 0 1 0 C1 4.62 1 9.24 1 14 C2.98 14 4.96 14 7 14 C6.34 15.32 5.68 16.64 5 18 C6.48693359 17.75443359 6.48693359 17.75443359 8.00390625 17.50390625 C11.99354579 16.93395774 15.90621941 16.90182495 19.9375 16.9375 C20.96327148 16.94426758 20.96327148 16.94426758 22.00976562 16.95117188 C23.67321604 16.9628044 25.3366205 16.98073306 27 17 C27 16.34 27 15.68 27 15 C27.66 15.33 28.32 15.66 29 16 C28.67 16.66 28.34 17.32 28 18 C25.69229243 18.18163892 23.37692802 18.2685698 21.0625 18.3125 C13.97944967 18.58245904 9.04143005 20.42347341 3 24 C2.01 24.33 1.02 24.66 0 25 C-1.63599555 20.68928156 -2.2719313 17.10557236 -2.25 12.5 C-2.25515625 11.4171875 -2.2603125 10.334375 -2.265625 9.21875 C-1.98879794 5.86425744 -1.19052385 3.13693587 0 0 Z " fill="#E8B142" transform="translate(68,90)"/>
<path d="M0 0 C4.5452892 -0.43130481 6.95519365 0.80901646 10.75 3.25 C11.71421875 3.85328125 12.6784375 4.4565625 13.671875 5.078125 C16 7 16 7 16.953125 9.109375 C16.96859375 9.73328125 16.9840625 10.3571875 17 11 C16.34 11.66 15.68 12.32 15 13 C11.1315407 12.6602029 8.01547869 10.38968834 4.75 8.4375 C3.67234375 7.79683594 2.5946875 7.15617187 1.484375 6.49609375 C0.25460938 5.75552734 0.25460938 5.75552734 -1 5 C-0.67 3.35 -0.34 1.7 0 0 Z " fill="#28201E" transform="translate(41,68)"/>
<path d="M0 0 C-0.13671875 2.2578125 -0.13671875 2.2578125 -1 5 C-3.58203125 7.0546875 -3.58203125 7.0546875 -6.8125 8.875 C-8.39998047 9.79925781 -8.39998047 9.79925781 -10.01953125 10.7421875 C-13 12 -13 12 -15.38671875 11.6953125 C-15.91910156 11.46585938 -16.45148438 11.23640625 -17 11 C-17.33 9.68 -17.66 8.36 -18 7 C-16.58531689 6.03874097 -15.1681636 5.08111675 -13.75 4.125 C-12.96109375 3.59132813 -12.1721875 3.05765625 -11.359375 2.5078125 C-7.05346777 -0.2439759 -5.07844799 -1.41068 0 0 Z " fill="#281F1E" transform="translate(156,69)"/>
<path d="M0 0 C0.56847656 0.37382813 1.13695313 0.74765625 1.72265625 1.1328125 C1.42286436 4.21249281 0.82903818 5.04499386 -1.60546875 7.0546875 C-2.5696875 7.65796875 -3.53390625 8.26125 -4.52734375 8.8828125 C-5.48125 9.49640625 -6.43515625 10.11 -7.41796875 10.7421875 C-10.36340288 12.17466639 -12.05720098 12.43837349 -15.27734375 12.1328125 C-15.60734375 10.8128125 -15.93734375 9.4928125 -16.27734375 8.1328125 C-13.27352591 5.51658406 -10.12068546 3.30918581 -6.71484375 1.2578125 C-5.97105469 0.80664062 -5.22726563 0.35546875 -4.4609375 -0.109375 C-2.27734375 -0.8671875 -2.27734375 -0.8671875 0 0 Z " fill="#2B2220" transform="translate(56.27734375,124.8671875)"/>
<path d="M0 0 C0.66 0 1.32 0 2 0 C1.68795673 6.08484373 -1.2344134 10.40562401 -5 15 C-7.875 17.0625 -7.875 17.0625 -10 18 C-13 16 -13 16 -15 13 C-13.63875 12.2265625 -13.63875 12.2265625 -12.25 11.4375 C-8.48237384 8.96443733 -6.9915852 5.98317039 -5 2 C-3.68 2 -2.36 2 -1 2 C-0.67 1.34 -0.34 0.68 0 0 Z " fill="#2A2220" transform="translate(166,143)"/>
<path d="M0 0 C21.5393127 -0.66769396 21.5393127 -0.66769396 30 6 C28.37585622 6.19477739 26.75063577 6.38059458 25.125 6.5625 C24.22007813 6.66691406 23.31515625 6.77132812 22.3828125 6.87890625 C20 7 20 7 18 6 C15.24481883 5.72448188 12.48982329 5.55393759 9.7265625 5.37890625 C5.39385395 4.77679632 2.91708409 3.2087925 0 0 Z " fill="#281E1B" transform="translate(89,64)"/>
<path d="M0 0 C2.2578125 -0.35546875 2.2578125 -0.35546875 5 0 C7.0546875 2.44921875 7.0546875 2.44921875 8.875 5.6875 C9.49117187 6.74324219 10.10734375 7.79898438 10.7421875 8.88671875 C12.09374642 12.23203694 12.11239879 13.63155648 11 17 C8.7421875 16.86328125 8.7421875 16.86328125 6 16 C3.9453125 13.41796875 3.9453125 13.41796875 2.125 10.1875 C1.50882812 9.12917969 0.89265625 8.07085937 0.2578125 6.98046875 C-1 4 -1 4 -0.6953125 1.61328125 C-0.46585938 1.08089844 -0.23640625 0.54851563 0 0 Z " fill="#251B1A" transform="translate(64,45)"/>
<path d="M0 0 C1.67542976 0.28604898 3.34385343 0.61781233 5 1 C4.40822718 4.91697251 3.23709361 7.8289213 1.25 11.25 C0.51523438 12.55710937 0.51523438 12.55710937 -0.234375 13.890625 C-2 16 -2 16 -4.703125 16.796875 C-5.46109375 16.86390625 -6.2190625 16.9309375 -7 17 C-8.11409257 13.64547952 -8.18356864 12.37534148 -6.6015625 9.140625 C-5.94929688 8.18671875 -5.29703125 7.2328125 -4.625 6.25 C-3.65433594 4.80367187 -3.65433594 4.80367187 -2.6640625 3.328125 C-1 1 -1 1 0 0 Z " fill="#261E1D" transform="translate(128,45)"/>
<path d="M0 0 C1.65 0.33 3.3 0.66 5 1 C5 6.94 5 12.88 5 19 C3.68 19.33 2.36 19.66 1 20 C-1 18 -1 18 -1.23046875 14.12109375 C-1.22647576 12.55983524 -1.21171261 10.99857586 -1.1875 9.4375 C-1.18685547 8.64408203 -1.18621094 7.85066406 -1.18554688 7.03320312 C-1.14025522 1.14025522 -1.14025522 1.14025522 0 0 Z " fill="#28201E" transform="translate(96,36)"/>
<path d="M0 0 C4.61251942 3.97189172 7.0631034 8.22177215 9 14 C9 14.99 9 15.98 9 17 C7.91203125 16.93039063 6.8240625 16.86078125 5.703125 16.7890625 C-4.49186753 16.34130159 -11.09841421 17.59011369 -20 23 C-20.99 23.33 -21.98 23.66 -23 24 C-22.6875 22.125 -22.6875 22.125 -22 20 C-21.01 19.34 -20.02 18.68 -19 18 C-18.01 18.33 -17.02 18.66 -16 19 C-16 18.34 -16 17.68 -16 17 C-9.38190423 14.53745274 -2.99560484 14.81064528 4 15 C3.65488627 7.90254512 3.65488627 7.90254512 0 2 C0 1.34 0 0.68 0 0 Z " fill="#E2AE47" transform="translate(121,80)"/>
<path d="M0 0 C1.5065732 0.00399622 3.01314702 0.01877492 4.51953125 0.04296875 C5.63424805 0.04393555 5.63424805 0.04393555 6.77148438 0.04492188 C11.37737533 0.0812523 15.77254958 0.52121605 20.33203125 1.23046875 C22.33170075 1.26682638 24.33262587 1.27923473 26.33203125 1.23046875 C26.33203125 2.55046875 26.33203125 3.87046875 26.33203125 5.23046875 C27.49648171 8.18638146 28.99011562 10.10145455 31.33203125 12.23046875 C31.00203125 13.22046875 30.67203125 14.21046875 30.33203125 15.23046875 C29.46578125 13.93109375 29.46578125 13.93109375 28.58203125 12.60546875 C24.13465695 7.19406823 16.84296511 4.40078004 10.33203125 2.23046875 C7.59337838 2.15995761 4.88175537 2.1368911 2.14453125 2.16796875 C1.02014648 2.17473633 1.02014648 2.17473633 -0.12695312 2.18164062 C-1.97399258 2.19340521 -3.82099088 2.2113401 -5.66796875 2.23046875 C-3.66796875 0.23046875 -3.66796875 0.23046875 0 0 Z " fill="#311C09" transform="translate(93.66796875,68.76953125)"/>
<path d="M0 0 C-1.62891459 3.14098721 -3.26158243 5.72747578 -6 8 C-9.82966314 8.41501151 -13.26052228 7.85169599 -17 7 C-15.61112939 3.73682828 -15.14116352 3.07905157 -11.875 1.25 C-7.84397889 -0.31997664 -4.28572244 -0.22556434 0 0 Z " fill="#281F1D" transform="translate(104,107)"/>
<path d="M0 0 C0.99 0.33 1.98 0.66 3 1 C2.67 1.66 2.34 2.32 2 3 C0.35 3 -1.3 3 -3 3 C-3.33 3.99 -3.66 4.98 -4 6 C-4.99 6 -5.98 6 -7 6 C-7 6.99 -7 7.98 -7 9 C-7.99 9 -8.98 9 -10 9 C-10 9.99 -10 10.98 -10 12 C-10.99 12.33 -11.98 12.66 -13 13 C-14.20882096 15.00016466 -14.20882096 15.00016466 -15 17 C-15.66 17 -16.32 17 -17 17 C-14.0872082 8.50435725 -7.81846779 3.9092339 0 0 Z " fill="#E4B044" transform="translate(86,72)"/>
<path d="M0 0 C4.29 0 8.58 0 13 0 C12.67 1.32 12.34 2.64 12 4 C7.71 4 3.42 4 -1 4 C-0.67 2.68 -0.34 1.36 0 0 Z " fill="#211716" transform="translate(38,100)"/>
<path d="M0 0 C2.375 0.3125 2.375 0.3125 5 1 C5.763125 1.185625 6.52625 1.37125 7.3125 1.5625 C8.1478125 1.7790625 8.1478125 1.7790625 9 2 C7.06745228 4.0245738 5.36841312 5.42105792 3 7 C0.8125 6.625 0.8125 6.625 -1 6 C-1.625 4.125 -1.625 4.125 -2 2 C-1.34 1.34 -0.68 0.68 0 0 Z " fill="#2E2624" transform="translate(140,74)"/>
<path d="M0 0 C4.55384615 -0.36923077 4.55384615 -0.36923077 6.8125 1.5 C7.204375 1.995 7.59625 2.49 8 3 C7.01 3.495 7.01 3.495 6 4 C4.86649466 6.01669827 4.86649466 6.01669827 4 8 C2.35 7.01 0.7 6.02 -1 5 C-0.67 3.35 -0.34 1.7 0 0 Z " fill="#2E2724" transform="translate(41,68)"/>
<path d="M0 0 C2.29141286 -0.05384521 4.58318188 -0.09272087 6.875 -0.125 C8.78925781 -0.15980469 8.78925781 -0.15980469 10.7421875 -0.1953125 C14 0 14 0 16 2 C10.39 2.66 4.78 3.32 -1 4 C-0.67 2.68 -0.34 1.36 0 0 Z " fill="#37200B" transform="translate(113,96)"/>
<path d="M0 0 C1.32 0.33 2.64 0.66 4 1 C3.731875 1.639375 3.46375 2.27875 3.1875 2.9375 C1.64635858 6.91202261 0.32390688 10.94884495 -1 15 C-1.66 14.67 -2.32 14.34 -3 14 C-2.855625 13.29875 -2.71125 12.5975 -2.5625 11.875 C-2.17250207 9.88167724 -1.82089711 7.88060691 -1.5 5.875 C-1 3 -1 3 0 0 Z " fill="#341C09" transform="translate(68,81)"/>
<path d="M0 0 C2.92824652 0.97608217 4.61426621 2.10786631 7 4 C6.34 5.32 5.68 6.64 5 8 C3.02 8 1.04 8 -1 8 C-0.67 5.36 -0.34 2.72 0 0 Z " fill="#281E1C" transform="translate(63,119)"/>
<path d="M0 0 C0.33 0 0.66 0 1 0 C1.06058594 0.73605469 1.12117188 1.47210938 1.18359375 2.23046875 C1.26738281 3.20628906 1.35117188 4.18210937 1.4375 5.1875 C1.51871094 6.15042969 1.59992188 7.11335938 1.68359375 8.10546875 C1.97666151 10.78649602 2.42703754 13.3662986 3 16 C2.34 16 1.68 16 1 16 C0.67 16.99 0.34 17.98 0 19 C-0.99 19.33 -1.98 19.66 -3 20 C-2.67 18.02 -2.34 16.04 -2 14 C-1.67 14 -1.34 14 -1 14 C-0.67 9.38 -0.34 4.76 0 0 Z " fill="#38240D" transform="translate(65,98)"/>
<path d="M0 0 C2 2 2 2 2.125 5.125 C2.08375 6.07375 2.0425 7.0225 2 8 C0.02 8.99 0.02 8.99 -2 10 C-2.6875 6.6875 -2.6875 6.6875 -3 3 C-1.5625 1.0625 -1.5625 1.0625 0 0 Z " fill="#271E1C" transform="translate(63,105)"/>
<path d="M0 0 C-1.65 1.98 -3.3 3.96 -5 6 C-5.66 5.34 -6.32 4.68 -7 4 C-9.58354218 3.83312552 -9.58354218 3.83312552 -12 4 C-12 3.34 -12 2.68 -12 2 C-8.09971775 -0.60018816 -4.52565431 -0.15085514 0 0 Z " fill="#231711" transform="translate(104,107)"/>
<path d="M0 0 C1.65 0 3.3 0 5 0 C5.66 1.32 6.32 2.64 7 4 C3.71303767 4.79953138 2.28976808 5.09658936 -1 4 C-0.67 2.68 -0.34 1.36 0 0 Z " fill="#312A27" transform="translate(64,45)"/>
<path d="M0 0 C0.66 0.33 1.32 0.66 2 1 C1.75 2.875 1.75 2.875 1 5 C-1.0625 6.25 -1.0625 6.25 -3 7 C-3.33 5.35 -3.66 3.7 -4 2 C-2.125 0.9375 -2.125 0.9375 0 0 Z " fill="#221917" transform="translate(56,125)"/>
<path d="M0 0 C1.98 1.32 3.96 2.64 6 4 C4.75 5.5625 4.75 5.5625 3 7 C0.9375 6.6875 0.9375 6.6875 -1 6 C-1.66 6 -2.32 6 -3 6 C-1.125 1.125 -1.125 1.125 0 0 Z " fill="#342618" transform="translate(69,76)"/>
<path d="M0 0 C0.99 0 1.98 0 3 0 C3.66 1.98 4.32 3.96 5 6 C2.66666667 6 0.33333333 6 -2 6 C-2 5.34 -2 4.68 -2 4 C-1.34 4 -0.68 4 0 4 C0 2.68 0 1.36 0 0 Z " fill="#2C2221" transform="translate(162,127)"/>
<path d="M0 0 C1.32 0 2.64 0 4 0 C3.67 1.32 3.34 2.64 3 4 C-0.96 4 -4.92 4 -9 4 C-9 3.67 -9 3.34 -9 3 C-6.36 3 -3.72 3 -1 3 C-0.67 2.01 -0.34 1.02 0 0 Z " fill="#241D1A" transform="translate(161,101)"/>
<path d="M0 0 C0.99 0.33 1.98 0.66 3 1 C1 2.5 1 2.5 -1 4 C-1.70125 4.556875 -2.4025 5.11375 -3.125 5.6875 C-5 7 -5 7 -7 7 C-6.6875 5.125 -6.6875 5.125 -6 3 C-5.01 2.34 -4.02 1.68 -3 1 C-2.01 1.33 -1.02 1.66 0 2 C0 1.34 0 0.68 0 0 Z " fill="#E1AB40" transform="translate(105,97)"/>
<path d="M0 0 C0.66 0 1.32 0 2 0 C2 0.66 2 1.32 2 2 C2.99 1.67 3.98 1.34 5 1 C5.66 1.99 6.32 2.98 7 4 C5.68 4.99 4.36 5.98 3 7 C0 2.25 0 2.25 0 0 Z " fill="#30251D" transform="translate(68,115)"/>
<path d="M0 0 C1.32 0 2.64 0 4 0 C4.99 1.98 5.98 3.96 7 6 C4.0625 5.25 4.0625 5.25 1 4 C0.125 1.875 0.125 1.875 0 0 Z " fill="#2D2523" transform="translate(145,118)"/>
<path d="M0 0 C-5.625 4 -5.625 4 -9 4 C-9 3.34 -9 2.68 -9 2 C-8.34 2 -7.68 2 -7 2 C-7 1.34 -7 0.68 -7 0 C-3.98968256 -0.93423645 -3.13349732 -1.04449911 0 0 Z " fill="#3C2007" transform="translate(84,74)"/>
<path d="M0 0 C0.66 0.33 1.32 0.66 2 1 C1.2884375 1.6496875 1.2884375 1.6496875 0.5625 2.3125 C-1.23686957 4.02309613 -1.23686957 4.02309613 -2 7 C-3.32 6.34 -4.64 5.68 -6 5 C-4.02 3.35 -2.04 1.7 0 0 Z " fill="#3A2207" transform="translate(102,101)"/>
<path d="M0 0 C0.99 0.66 1.98 1.32 3 2 C2.67 2.99 2.34 3.98 2 5 C-0.0625 5.6875 -0.0625 5.6875 -2 6 C-2.66 5.01 -3.32 4.02 -4 3 C-3.01 2.67 -2.02 2.34 -1 2 C-0.67 1.34 -0.34 0.68 0 0 Z " fill="#1E1513" transform="translate(142,105)"/>
<path d="M0 0 C0.33 1.32 0.66 2.64 1 4 C0.01 4.495 0.01 4.495 -1 5 C-3.125 4.0625 -3.125 4.0625 -5 3 C-5 2.34 -5 1.68 -5 1 C-2 0 -2 0 0 0 Z " fill="#231515" transform="translate(75,75)"/>
<path d="M0 0 C2.31 0 4.62 0 7 0 C7.33 0.66 7.66 1.32 8 2 C7.67 2.66 7.34 3.32 7 4 C3.73045798 3.43628586 2.17424117 2.50037734 0 0 Z " fill="#372E2D" transform="translate(89,64)"/>
</svg>
